<?xml version="1.0" encoding="iso-8859-1"?>
<!-- Uploaded to: SVG Repo, www.svgrepo.com, Generator: SVG Repo Mixer Tools -->
<!DOCTYPE svg PUBLIC "-//W3C//DTD SVG 1.1//EN" "http://www.w3.org/Graphics/SVG/1.1/DTD/svg11.dtd">
<svg fill="#000000" height="800px" width="800px" version="1.1" id="Capa_1" xmlns="http://www.w3.org/2000/svg" xmlns:xlink="http://www.w3.org/1999/xlink" 
	 viewBox="0 0 319.746 319.746" xml:space="preserve">
<path d="M285.505,310.745c0,4.971-4.029,9-9,9h-65.867c-0.056,0.001-0.112,0.001-0.168,0.001c-0.057,0-0.112,0-0.168-0.001h-78.303
	c-0.112,0.002-0.225,0.002-0.337,0h-78.3c-0.112,0.002-0.225,0.002-0.337,0H9.305c-4.971,0-9-4.029-9-9s4.029-9,9-9h34.888V68.535
	c0-4.971,4.029-9,9-9s9,4.029,9,9v233.21h60.637V147.218c0-4.971,4.029-9,9-9c4.971,0,9,4.029,9,9v154.527h60.64v-91.58
	c0-4.971,4.029-9,9-9s9,4.029,9,9v91.58h57.035C281.476,301.745,285.505,305.774,285.505,310.745z M310.442,167.062
	c-4.971,0-9,4.029-9,9v24.574l-198.001-198c-1.805-1.805-4.189-2.688-6.552-2.634H9.305c-4.971,0-9,4.029-9,9s4.029,9,9,9h84.046
	l195.364,195.362H264.14c-4.971,0-9,4.029-9,9s4.029,9,9,9h46.302c2.917,0,5.511-1.388,7.155-3.54
	c0.369-0.482,0.684-0.995,0.941-1.526c0.579-1.188,0.903-2.523,0.903-3.934v-0.001v-46.302
	C319.442,171.091,315.412,167.062,310.442,167.062z"/>
</svg>